#N canvas 255 130 818 654 10;
#N canvas 784 277 601 532 preset-duration-playback 0;
#X obj 54 479 outlet;
#X obj 54 47 bng 15 250 50 0 empty empty empty 17 7 0 10 -262144 -1
-1;
#X obj 54 67 f \$0;
#X obj 87 117 bng 15 250 50 0 empty empty empty 17 7 0 10 -262144 -1
-1;
#X obj 87 137 f \$0;
#X obj 136 190 bng 15 250 50 0 empty empty empty 17 7 0 10 -262144
-1 -1;
#X obj 136 210 f \$0;
#X obj 163 279 bng 15 250 50 0 empty empty empty 17 7 0 10 -262144
-1 -1;
#X obj 163 299 f \$0;
#X text 335 29 "play" command arguments:;
#X text 335 59 \$1: voice number (0-15) \; \$2: sample array name \;
\$3: desired duration (ms) \; \$4: amplitude (dB) \; \$5: transposition
(cents) \; \$6: onset duration (ms) \; \$7: release time (% of duration)
\;;
#X msg 163 319 play 3 \$1-voice 4000 90 300 1150 0;
#X msg 87 157 play 1 \$1-piano 10000 94 300 300 0;
#X text 289 358 stop playback in a given voice early;
#X msg 240 397 stop 2;
#X msg 250 417 stop 3;
#X msg 220 357 stop 0;
#X msg 136 230 play 2 \$1-voice 5000 100 -300 1000 5;
#X msg 230 377 stop 1;
#X msg 54 87 play 0 \$1-piano 2000 94 0 250 10;
#X connect 1 0 2 0;
#X connect 2 0 19 0;
#X connect 3 0 4 0;
#X connect 4 0 12 0;
#X connect 5 0 6 0;
#X connect 6 0 17 0;
#X connect 7 0 8 0;
#X connect 8 0 11 0;
#X connect 11 0 0 0;
#X connect 12 0 0 0;
#X connect 14 0 0 0;
#X connect 15 0 0 0;
#X connect 16 0 0 0;
#X connect 17 0 0 0;
#X connect 18 0 0 0;
#X connect 19 0 0 0;
#X restore 58 26 pd preset-duration-playback;
#N canvas 41 581 658 345 settings 0;
#X msg 44 126 window-size \$1;
#X msg 44 31 512;
#X msg 64 51 1024;
#X msg 84 71 2048;
#X msg 104 91 4096;
#X obj 44 258 outlet;
#X msg 111 202 samplerate 48000;
#X text 241 200 Internal default is 44.1kHz \, but if your samples
are at a different sampling rate \, you can set it here. All samples
used with [timeStretch~] should be at the same sampling rate.;
#X text 165 53 Internal default is 2048;
#X msg 91 182 samplerate 44100;
#X connect 0 0 5 0;
#X connect 1 0 0 0;
#X connect 2 0 0 0;
#X connect 3 0 0 0;
#X connect 4 0 0 0;
#X connect 6 0 5 0;
#X connect 9 0 5 0;
#X restore 186 237 pd settings;
#N canvas 699 366 671 289 load-samples 0;
#X obj 295 185 soundfiler;
#X obj 295 54 f \$0;
#X obj 295 24 loadbang;
#X msg 295 101 read -resize ./audio/piano-72.wav \$1-piano;
#X msg 328 127 read -resize ./audio/voice.wav \$1-voice;
#X obj 55 134 table \$0-voice;
#X obj 55 104 table \$0-piano;
#X connect 1 0 3 0;
#X connect 1 0 4 0;
#X connect 2 0 1 0;
#X connect 3 0 0 0;
#X connect 4 0 0 0;
#X restore 634 524 pd load-samples;
#N canvas 401 83 657 556 keyboard 0;
#X obj 51 495 outlet;
#X obj 51 50 notein;
#X obj 51 126 - 1;
#X obj 485 267 f;
#X obj 485 225 t b f;
#X obj 485 296 select 0;
#X obj 485 325 f;
#X obj 281 213 / 127;
#X obj 281 242 * 12;
#X obj 281 271 + 88;
#X obj 51 97 poly 16 0;
#X obj 143 233 * 100;
#X obj 51 195 spigot;
#X msg 51 376 attack \$1 \$4-piano \$3 \$2 500;
#X obj 51 335 pack f f f \$0;
#X obj 465 296 bng 15 250 50 0 empty empty empty 17 7 0 10 -262144
-1 -1;
#X text 325 236 12dB of dynamic range, f 9;
#X msg 485 371 release \$1 500;
#N canvas 0 23 459 317 mod-wheel-playhead 0;
#X obj 84 62 / 1.27;
#X obj 84 263 outlet;
#X msg 84 242 playhead \$1 \$2;
#X obj 84 83 t b f;
#X msg 84 104 16;
#X obj 84 125 t f b;
#X obj 84 146 until;
#X obj 84 197 f;
#X obj 114 198 + 1;
#X msg 107 170 0;
#X obj 84 218 pack f f;
#X text 201 106 Since there are 16 voices \, we should send this message
to all of them. An alternative is to only send to the most recently
activated voice., f 30;
#X obj 84 41 ctlin 1;
#X connect 0 0 3 0;
#X connect 2 0 1 0;
#X connect 3 0 4 0;
#X connect 3 1 10 1;
#X connect 4 0 5 0;
#X connect 5 0 6 0;
#X connect 5 1 9 0;
#X connect 6 0 7 0;
#X connect 7 0 8 0;
#X connect 7 0 10 0;
#X connect 8 0 7 1;
#X connect 9 0 7 1;
#X connect 10 0 2 0;
#X connect 12 0 0 0;
#X restore 120 414 pd mod-wheel-playhead;
#N canvas 568 318 457 391 pitchbend 0;
#X obj 84 313 outlet;
#X obj 84 133 t b f;
#X msg 84 154 16;
#X obj 84 175 t f b;
#X obj 84 196 until;
#X obj 84 247 f;
#X obj 114 248 + 1;
#X msg 107 220 0;
#X obj 84 268 pack f f;
#X text 201 106 Since there are 16 voices \, we should send this message
to all of them. An alternative is to only send to the most recently
activated voice., f 30;
#X obj 84 11 bendin;
#X obj 84 32 - 8192;
#X msg 84 293 bend \$1 \$2;
#X obj 84 53 / 8192;
#X obj 84 74 * 100;
#X connect 1 0 2 0;
#X connect 1 1 8 1;
#X connect 2 0 3 0;
#X connect 3 0 4 0;
#X connect 3 1 7 0;
#X connect 4 0 5 0;
#X connect 5 0 6 0;
#X connect 5 0 8 0;
#X connect 6 0 5 1;
#X connect 7 0 5 1;
#X connect 8 0 12 0;
#X connect 10 0 11 0;
#X connect 11 0 13 0;
#X connect 12 0 0 0;
#X connect 13 0 14 0;
#X connect 14 0 1 0;
#X restore 130 434 pd pitchbend;
#X obj 143 204 - 72;
#X text 187 198 Treble C split point for unity pitch, f 9;
#X text 221 49 Here's a simple example showing use in a MIDI keyboard
context. The mod wheel controls playhead position \, and the pitch
bend wheel does what it was born to do. Both work on all active voices
globally \, though you could design things differently and apply playhead/bend
commands to specific targeted voices.;
#X connect 1 0 10 0;
#X connect 1 1 10 1;
#X connect 2 0 4 0;
#X connect 2 0 12 0;
#X connect 3 0 5 0;
#X connect 4 0 3 0;
#X connect 4 1 6 1;
#X connect 5 0 6 0;
#X connect 5 0 15 0;
#X connect 6 0 17 0;
#X connect 7 0 8 0;
#X connect 8 0 9 0;
#X connect 9 0 14 2;
#X connect 10 0 2 0;
#X connect 10 1 20 0;
#X connect 10 2 3 1;
#X connect 10 2 7 0;
#X connect 10 2 12 1;
#X connect 11 0 14 1;
#X connect 12 0 14 0;
#X connect 13 0 0 0;
#X connect 14 0 13 0;
#X connect 17 0 0 0;
#X connect 18 0 0 0;
#X connect 19 0 0 0;
#X connect 20 0 11 0;
#X restore 156 187 pd keyboard;
#N canvas 4 23 592 473 output 0;
#X obj 370 277 *~;
#X obj 362 306 dac~;
#X floatatom 110 118 5 0 148 1 dB - -;
#X obj 380 195 dbtorms;
#X obj 380 217 pack f 40;
#X obj 380 239 line~;
#X obj 306 126 inlet~;
#X obj 173 16 loadbang;
#X msg 173 37 90;
#X connect 0 0 1 0;
#X connect 0 0 1 1;
#X connect 2 0 3 0;
#X connect 3 0 4 0;
#X connect 4 0 5 0;
#X connect 5 0 0 1;
#X connect 6 0 0 0;
#X connect 7 0 8 0;
#X connect 8 0 2 0;
#X coords 0 -1 1 1 100 40 1 100 100;
#X restore 58 425 pd output;
#X obj 41 334 cnv 15 130 60 empty empty empty 20 12 0 14 -228856 -66577
0;
#N canvas 790 90 907 609 attack-release-playback-basics 0;
#X msg 147 228 bend 0 \$1;
#X obj 57 538 outlet;
#X floatatom 97 148 5 0 100 1 % - -;
#X floatatom 147 208 5 0 0 1 cents - -;
#X floatatom 197 268 5 0 100 1 dB - -;
#X msg 197 288 amp 0 \$1;
#X obj 57 48 bng 15 250 50 0 empty empty empty 17 7 0 10 -262144 -1
-1;
#X obj 57 68 f \$0;
#X obj 237 338 bng 15 250 50 0 empty empty empty 17 7 0 10 -262144
-1 -1;
#X obj 237 358 f \$0;
#X text 262 32 "attack" command arguments:;
#X text 262 62 \$1: voice ID (0-15) \; \$2: sample array name \; \$3:
amplitude (dB) \; \$4: transposition (cents) \; \$5: onset duration
(ms) \;;
#X msg 97 168 playhead 0 \$1;
#X msg 237 378 release 0 2000;
#X text 296 330 \$1: voice ID (0-15) \; \$2: release time (ms) \;;
#X text 296 300 "release" command expects:;
#X text 261 194 "playhead" \, "bend" \, and "amp" commands all need
to start with the voice ID to which their values should be sent.;
#X obj 287 428 bng 15 250 50 0 empty empty empty 17 7 0 10 -262144
-1 -1;
#X obj 287 448 f \$0;
#X msg 287 468 release 0 -1;
#X text 341 414 A release time value of -1 plays to the end of the
sample at normal speed without any amplitude fade. Useful if your sample
fades to silence on its own anyway., f 64;
#X text 496 310 An amplitude fade-out will be applied in the given
number of ms while the sample plays toward the end from its current
playhead position at normal speed. If the specified release time is
longer than the remaining duration of the sample \, the fade out will
occur over the remaining duration instead.;
#X text 613 54 NOTE: once an "attack" message is sent \, all subsequent
"attack" messages are ignored until a "release" message is sent.,
f 24;
#X msg 57 88 attack 0 \$1-piano 94 0 250;
#X connect 0 0 1 0;
#X connect 2 0 12 0;
#X connect 3 0 0 0;
#X connect 4 0 5 0;
#X connect 5 0 1 0;
#X connect 6 0 7 0;
#X connect 7 0 23 0;
#X connect 8 0 9 0;
#X connect 9 0 13 0;
#X connect 12 0 1 0;
#X connect 13 0 1 0;
#X connect 17 0 18 0;
#X connect 18 0 19 0;
#X connect 19 0 1 0;
#X connect 23 0 1 0;
#X restore 78 65 pd attack-release-playback-basics;
#N canvas 586 123 1020 703 attack-release-playback-more 0;
#X obj 54 635 outlet;
#X floatatom 117 196 5 0 100 1 % - -;
#X floatatom 455 417 5 0 100 1 % - -;
#N canvas 1130 41 594 326 ms-to-percent 0;
#X obj 61 8 inlet;
#X obj 61 30 t f b;
#X obj 139 118 / 44.1;
#X obj 61 152 /;
#X obj 61 204 * 100;
#X obj 61 276 outlet;
#X floatatom 91 246 5 0 0 0 - - -;
#X text 195 117 convert to ms (assuming 44100 sampling rate);
#X text 124 204 convert to percent;
#X obj 139 86 array size \$0-piano;
#X connect 0 0 1 0;
#X connect 1 0 3 0;
#X connect 1 1 9 0;
#X connect 2 0 3 1;
#X connect 3 0 4 0;
#X connect 4 0 5 0;
#X connect 4 0 6 0;
#X connect 9 0 2 0;
#X restore 117 152 pd ms-to-percent;
#X floatatom 204 131 10 0 0 1 onset-ms - -;
#X msg 117 174 set \$1;
#X obj 54 74 t a a;
#X obj 86 104 unpack s f s f f f;
#N canvas 681 51 594 326 ms-to-percent 0;
#X obj 61 8 inlet;
#X obj 61 30 t f b;
#X obj 139 118 / 44.1;
#X obj 61 152 /;
#X obj 61 204 * 100;
#X obj 61 276 outlet;
#X floatatom 91 246 5 0 0 0 - - -;
#X text 195 117 convert to ms (assuming 44100 sampling rate);
#X text 124 204 convert to percent;
#X obj 139 86 array size \$0-voice;
#X connect 0 0 1 0;
#X connect 1 0 3 0;
#X connect 1 1 9 0;
#X connect 2 0 3 1;
#X connect 3 0 4 0;
#X connect 4 0 5 0;
#X connect 4 0 6 0;
#X connect 9 0 2 0;
#X restore 455 375 pd ms-to-percent;
#X msg 455 397 set \$1;
#X obj 423 315 t a a;
#X obj 455 345 unpack s f s f f f;
#X floatatom 137 244 5 0 0 0 - - -;
#X msg 137 264 bend 0 \$1;
#X obj 54 12 bng 15 250 50 0 empty empty empty 17 7 0 10 -262144 -1
-1;
#X obj 54 32 f \$0;
#X obj 167 294 bng 15 250 50 0 empty empty empty 17 7 0 10 -262144
-1 -1;
#X obj 167 314 f \$0;
#X msg 54 52 attack 0 \$1-piano 94 0 300;
#X obj 423 253 bng 15 250 50 0 empty empty empty 17 7 0 10 -262144
-1 -1;
#X obj 423 273 f \$0;
#X obj 625 508 bng 15 250 50 0 empty empty empty 17 7 0 10 -262144
-1 -1;
#X obj 625 528 f \$0;
#X msg 117 217 playhead 0 \$1;
#X msg 455 448 playhead 1 \$1;
#X msg 167 334 release 0 500;
#X text 235 156 grab the onset duration from an attack message and
convert it to percent so that you can set the starting position of
the playhead control if you'd like to move forward or back after the
onset occurs., f 42;
#X msg 423 295 attack 1 \$1-voice 94 0 250;
#X msg 515 538 pause 1;
#X msg 485 478 continue 1 20;
#X msg 495 498 continue 1 -5;
#X text 719 480 \$1: voice ID (0-15) \; \$2: playback speed (%) \;
;
#X text 719 450 "continue" command arguments:;
#X text 769 540 "pause" command arguments:;
#X text 769 570 \$1: voice ID (0-15) \;;
#X text 625 340 After an "attack" message \, you can also send "continue"
and "pause" messages to freely resume or pause playback as many times
as you like. Forward or reverse playback is possible., f 30;
#X msg 625 548 release 1 -1;
#X connect 1 0 23 0;
#X connect 2 0 24 0;
#X connect 3 0 5 0;
#X connect 5 0 1 0;
#X connect 6 0 0 0;
#X connect 6 1 7 0;
#X connect 7 5 4 0;
#X connect 7 5 3 0;
#X connect 8 0 9 0;
#X connect 9 0 2 0;
#X connect 10 0 0 0;
#X connect 10 1 11 0;
#X connect 11 5 8 0;
#X connect 12 0 13 0;
#X connect 13 0 0 0;
#X connect 14 0 15 0;
#X connect 15 0 18 0;
#X connect 16 0 17 0;
#X connect 17 0 25 0;
#X connect 18 0 6 0;
#X connect 19 0 20 0;
#X connect 20 0 27 0;
#X connect 21 0 22 0;
#X connect 22 0 36 0;
#X connect 23 0 0 0;
#X connect 24 0 0 0;
#X connect 25 0 0 0;
#X connect 27 0 10 0;
#X connect 28 0 0 0;
#X connect 29 0 0 0;
#X connect 30 0 0 0;
#X connect 36 0 0 0;
#X restore 96 87 pd attack-release-playback-more;
#X text 377 163 I especially like it for sustaining percussive samples
indefinitely. The "attack" command starts playback at regular speed
\, and then freezes at a specified sustain point after the transient
until a "release" command is sent.;
#X text 377 53 [timeStretch~] is a Pd-vanilla abstraction for playing
back pre-recorded samples at various speeds and transpositions. At
its core is the I07.phase.vocoder.pd example patch from Pd's built-in
documentation \, which produces high-quality time compression/expansion
results. [timeStretch~] adds functionality for changing sample arrays
on the fly \, 16-voice polyphony \, and has commands designed for navigating
the difficulties of time stretching transients.;
#X obj 225 408 print;
#X text 213 317 outlet 1: output signal;
#X obj 58 355 timeStretch~;
#N canvas 247 107 785 300 playhead-positions 0;
#X obj 88 93 hsl 64 10 0 100 0 0 empty empty empty -2 -8 0 10 -262144
-1 -1 0 1;
#X obj 88 113 hsl 64 10 0 100 0 0 empty empty empty -2 -8 0 10 -262144
-1 -1 0 1;
#X obj 88 133 hsl 64 10 0 100 0 0 empty empty empty -2 -8 0 10 -262144
-1 -1 0 1;
#X obj 88 153 hsl 64 10 0 100 0 0 empty empty empty -2 -8 0 10 -262144
-1 -1 0 1;
#X obj 88 173 hsl 64 10 0 100 0 0 empty empty empty -2 -8 0 10 -262144
-1 -1 0 1;
#X obj 88 193 hsl 64 10 0 100 0 0 empty empty empty -2 -8 0 10 -262144
-1 -1 0 1;
#X obj 88 213 hsl 64 10 0 100 0 0 empty empty empty -2 -8 0 10 -262144
-1 -1 0 1;
#X obj 88 233 hsl 64 10 0 100 0 0 empty empty empty -2 -8 0 10 -262144
-1 -1 0 1;
#X obj 188 93 hsl 64 10 0 100 0 0 empty empty empty -2 -8 0 10 -262144
-1 -1 0 1;
#X obj 188 113 hsl 64 10 0 100 0 0 empty empty empty -2 -8 0 10 -262144
-1 -1 0 1;
#X obj 188 133 hsl 64 10 0 100 0 0 empty empty empty -2 -8 0 10 -262144
-1 -1 0 1;
#X obj 188 153 hsl 64 10 0 100 0 0 empty empty empty -2 -8 0 10 -262144
-1 -1 0 1;
#X obj 188 173 hsl 64 10 0 100 0 0 empty empty empty -2 -8 0 10 -262144
-1 -1 0 1;
#X obj 188 193 hsl 64 10 0 100 0 0 empty empty empty -2 -8 0 10 -262144
-1 -1 0 1;
#X obj 188 213 hsl 64 10 0 100 0 0 empty empty empty -2 -8 0 10 -262144
-1 -1 0 1;
#X obj 188 233 hsl 64 10 0 100 0 0 empty empty empty -2 -8 0 10 -262144
-1 -1 0 1;
#X obj 364 19 inlet;
#X obj 364 40 route 0 1 2 3 4 5 6 7;
#X obj 524 40 route 8 9 10 11 12 13 14 15;
#X obj 364 61 unpack f f f;
#X obj 374 81 unpack f f f;
#X obj 384 101 unpack f f f;
#X obj 394 121 unpack f f f;
#X obj 404 141 unpack f f f;
#X obj 414 161 unpack f f f;
#X obj 424 181 unpack f f f;
#X obj 434 201 unpack f f f;
#X obj 524 61 unpack f f f;
#X obj 534 81 unpack f f f;
#X obj 544 101 unpack f f f;
#X obj 554 121 unpack f f f;
#X obj 564 141 unpack f f f;
#X obj 574 161 unpack f f f;
#X obj 584 181 unpack f f f;
#X obj 594 201 unpack f f f;
#X connect 16 0 17 0;
#X connect 17 0 19 0;
#X connect 17 1 20 0;
#X connect 17 2 21 0;
#X connect 17 3 22 0;
#X connect 17 4 23 0;
#X connect 17 5 24 0;
#X connect 17 6 25 0;
#X connect 17 7 26 0;
#X connect 17 8 18 0;
#X connect 18 0 27 0;
#X connect 18 1 28 0;
#X connect 18 2 29 0;
#X connect 18 3 30 0;
#X connect 18 4 31 0;
#X connect 18 5 32 0;
#X connect 18 6 33 0;
#X connect 18 7 34 0;
#X connect 19 2 0 0;
#X connect 20 2 1 0;
#X connect 21 2 2 0;
#X connect 22 2 3 0;
#X connect 23 2 4 0;
#X connect 24 2 5 0;
#X connect 25 2 6 0;
#X connect 26 2 7 0;
#X connect 27 2 8 0;
#X connect 28 2 9 0;
#X connect 29 2 10 0;
#X connect 30 2 11 0;
#X connect 31 2 12 0;
#X connect 32 2 13 0;
#X connect 33 2 14 0;
#X connect 34 2 15 0;
#X coords 0 -1 1 1 200 180 1 70 70;
#X restore 187 440 pd playhead-positions;
#X text 213 367 outlet 3: "note-off" messages for voices 0-15 \, indicating
when a voice has finished playback;
#X text 602 580 [timeStretch~] version 0.2.1;
#X text 602 600 William Brent \, March 2019;
#X text 213 337 outlet 2: playhead position of each voice in milliseconds
\, samples \, and percent (given as a 3-element list);
#X connect 0 0 12 0;
#X connect 1 0 12 0;
#X connect 3 0 12 0;
#X connect 6 0 12 0;
#X connect 7 0 12 0;
#X connect 12 0 4 0;
#X connect 12 1 13 0;
#X connect 12 2 10 0;
