#N canvas 64 430 652 520 10;
#N canvas 561 97 1110 821 table-scrub-guts 1;
#X obj 30 699 *~;
#X obj 140 126 f;
#X obj 220 701 *~;
#X obj 140 49 bang~;
#X msg 30 517 \$1 \, \$2 \$3;
#X obj 387 379 *;
#X obj 654 384 + 69;
#X obj 654 405 mtof;
#X obj 654 427 / 440;
#X obj 654 450 t b f;
#X obj 30 725 outlet~;
#X obj 220 726 outlet~;
#X obj 204 251 / 2;
#X obj 167 251 -;
#X obj 30 603 -~;
#X text 339 19 Read two windows out of the recorded sample \, one 1/4
ahead of the other. The mid point of the front window is specified
by "location". If "speed" is nonzero \, "location" automatically precesses.
;
#X obj 541 696 * -0.5;
#X obj 541 633 f;
#X obj 30 489 pack f f f;
#X obj 30 557 vline~;
#X floatatom 387 408 10 0 0 0 - - -;
#X obj 654 363 / 100;
#X text 699 364 transpo in 100ths of a semitone (cents);
#X obj 177 127 +;
#X obj 505 272 *;
#X obj 505 122 * 0.01;
#X obj 220 642 tabread4~;
#X obj 30 644 tabread4~;
#X msg 277 582 set \$1;
#X obj 277 559 symbol;
#X obj 387 325 r \$1-timestretch-window-size;
#X obj 505 68 r \$1-timestretch-\$2-speed;
#X obj 176 88 r \$1-timestretch-\$2-location;
#X obj 277 537 r \$1-timestretch-\$2-tablename;
#X obj 243 670 tabreceive~ \$1-timestretch-hann;
#X obj 541 601 r \$1-timestretch-\$2-rewind;
#X obj 729 102 r \$1-timestretch-\$2-onset-dur;
#X obj 695 126 pipe;
#X obj 695 73 r \$1-timestretch-\$2-speed-post-onset;
#X msg 30 447 0;
#X obj 167 277 t b f;
#X obj 167 226 *;
#X obj 541 660 /;
#X obj 581 660 / 1000;
#X obj 207 228 / 1000;
#X floatatom 602 686 5 0 0 0 - - -;
#X obj 207 206 r \$1-timestretch-\$2-samplerate;
#X text 646 272 desired transposition;
#X obj 654 292 r \$1-timestretch-\$2-transpo;
#X obj 654 342 +;
#X obj 704 334 t b f;
#X obj 704 312 r \$1-timestretch-\$2-bend;
#X obj 541 726 pack f \$1 \$2;
#X text 663 671 Set speed to zero as well on rewind \, that way there's
no possibility that location can be set to something weird depending
on block bang timing, f 34;
#X msg 541 747 \; \$2-timestretch-\$3-speed 0 \; \$2-timestretch-\$3-location
\$1 \;;
#X obj 782 503 /;
#X floatatom 792 528 10 0 0 0 - - -;
#X obj 387 350 *;
#X obj 782 547 t b f;
#X obj 111 432 / 4;
#X obj 111 355 r \$1-timestretch-window-size;
#X obj 111 403 /;
#X obj 157 421 t b f;
#X obj 157 397 r \$1-timestretch-pd-samplerate;
#X obj 819 476 r \$1-timestretch-pd-samplerate;
#X obj 819 497 t b f;
#X obj 782 452 r \$1-timestretch-\$2-samplerate;
#X text 203 419 Use Pd's samplerate to set the time duration of each
window in ms., f 22;
#X text 831 551 Get the ratio of the sample's samplerate to Pd's samplerate
in order to scale the stretched window size in samples if they are
different, f 33;
#X text 538 548 "rewind" control takes us to a location depending on
stretched window size., f 26;
#N canvas 163 237 515 492 calc-location 0;
#X obj 76 41 inlet;
#X obj 122 106 s \$1-timestretch-\$2-location-current;
#X obj 36 259 f \$2;
#X obj 76 431 s \$1-timestretch-omni-location-current;
#X obj 234 315 array size;
#X obj 298 291 symbol;
#X obj 298 269 r \$1-timestretch-\$2-tablename;
#X obj 194 315 /;
#X obj 194 270 t f b;
#X obj 194 336 * 100;
#X obj 76 410 pack f f f f;
#X obj 194 357 clip 0 100;
#X obj 194 180 inlet;
#X obj 76 157 t b f;
#X connect 0 0 1 0;
#X connect 0 0 13 0;
#X connect 2 0 10 0;
#X connect 4 0 7 1;
#X connect 5 0 4 1;
#X connect 6 0 5 0;
#X connect 7 0 9 0;
#X connect 8 0 7 0;
#X connect 8 0 10 2;
#X connect 8 1 4 0;
#X connect 9 0 11 0;
#X connect 10 0 3 0;
#X connect 11 0 10 3;
#X connect 12 0 8 0;
#X connect 13 0 2 0;
#X connect 13 1 10 1;
#X restore 21 275 pd calc-location;
#X obj 140 147 t f f;
#X msg 745 153 clear;
#X obj 745 132 r \$1-timestretch-\$2-stop-playback;
#X obj 581 638 r \$1-timestretch-pd-samplerate;
#X text 246 256 reading location (samples) back up 1/2 window, f 27
;
#X text 385 429 stretched window size scaled by ratio of samplerates
(samples), f 33;
#X obj 64 602 / 4;
#X floatatom 116 645 10 0 0 0 - - -;
#X text 85 560 "back" window 1/4 cycle behind "front" one, f 25;
#X floatatom 505 302 15 0 0 1 ms - -;
#X obj 539 158 r \$1-timestretch-window-size;
#X obj 539 216 /;
#X obj 576 231 t b f;
#X obj 539 179 * 1000;
#X obj 576 205 r \$1-timestretch-pd-samplerate;
#X obj 539 237 / 4;
#X obj 111 376 * 1000;
#X connect 0 0 10 0;
#X connect 1 0 23 0;
#X connect 1 0 71 0;
#X connect 2 0 11 0;
#X connect 3 0 1 0;
#X connect 4 0 19 0;
#X connect 5 0 17 1;
#X connect 5 0 12 0;
#X connect 5 0 20 0;
#X connect 5 0 18 1;
#X connect 5 0 77 0;
#X connect 6 0 7 0;
#X connect 7 0 8 0;
#X connect 8 0 9 0;
#X connect 9 0 5 0;
#X connect 9 1 5 1;
#X connect 12 0 13 1;
#X connect 13 0 40 0;
#X connect 14 0 27 0;
#X connect 16 0 52 0;
#X connect 17 0 42 0;
#X connect 18 0 4 0;
#X connect 19 0 14 0;
#X connect 19 0 26 0;
#X connect 21 0 6 0;
#X connect 23 0 1 1;
#X connect 24 0 23 1;
#X connect 24 0 80 0;
#X connect 25 0 24 0;
#X connect 26 0 2 0;
#X connect 27 0 0 0;
#X connect 28 0 26 0;
#X connect 28 0 27 0;
#X connect 29 0 28 0;
#X connect 30 0 57 0;
#X connect 31 0 25 0;
#X connect 32 0 1 1;
#X connect 33 0 29 0;
#X connect 34 0 2 1;
#X connect 34 0 0 1;
#X connect 35 0 17 0;
#X connect 36 0 37 1;
#X connect 37 0 25 0;
#X connect 38 0 37 0;
#X connect 39 0 18 0;
#X connect 40 0 39 0;
#X connect 40 1 27 1;
#X connect 40 1 26 1;
#X connect 41 0 13 0;
#X connect 41 0 70 1;
#X connect 42 0 16 0;
#X connect 43 0 42 1;
#X connect 43 0 45 0;
#X connect 44 0 41 1;
#X connect 46 0 44 0;
#X connect 48 0 49 0;
#X connect 49 0 21 0;
#X connect 50 0 49 0;
#X connect 50 1 49 1;
#X connect 51 0 50 0;
#X connect 52 0 54 0;
#X connect 55 0 56 0;
#X connect 55 0 58 0;
#X connect 57 0 5 0;
#X connect 58 0 57 0;
#X connect 58 1 57 1;
#X connect 59 0 18 2;
#X connect 60 0 87 0;
#X connect 61 0 59 0;
#X connect 62 0 61 0;
#X connect 62 1 61 1;
#X connect 63 0 62 0;
#X connect 64 0 65 0;
#X connect 65 0 55 0;
#X connect 65 1 55 1;
#X connect 66 0 55 0;
#X connect 71 0 70 0;
#X connect 71 1 41 0;
#X connect 72 0 37 0;
#X connect 73 0 72 0;
#X connect 74 0 43 0;
#X connect 77 0 78 0;
#X connect 77 0 14 1;
#X connect 81 0 84 0;
#X connect 82 0 86 0;
#X connect 83 0 82 0;
#X connect 83 1 82 1;
#X connect 84 0 82 0;
#X connect 85 0 83 0;
#X connect 86 0 24 1;
#X connect 87 0 61 0;
#X restore 70 94 pd table-scrub-guts;
#X obj 70 394 outlet~;
#X obj 210 397 outlet~;
#N canvas 1405 75 450 300 init 0;
#X obj 58 34 f \$1;
#X obj 58 80 pack f \$2;
#X msg 58 109 \; \$1-timestretch-\$2-transpo 0 \; \$1-timestretch-\$2-bend
0 \; \$1-timestretch-\$2-speed 100 \; \$1-timestretch-\$2-gain 0 \;
\$1-timestretch-\$2-rewind bang \;;
#X obj 58 12 r \$1-lb4;
#X connect 0 0 1 0;
#X connect 1 0 2 0;
#X connect 3 0 0 0;
#X restore 70 34 pd init;
#X obj 70 354 *~;
#X obj 210 354 *~;
#X obj 249 91 r \$1-timestretch-\$2-gain;
#X obj 249 113 dbtorms;
#X obj 249 218 vline~;
#X obj 377 181 delay;
#X msg 377 332 0 \$1;
#X obj 377 203 f;
#X obj 377 155 r \$1-timestretch-\$2-sustain-time;
#X obj 414 204 r \$1-timestretch-\$2-release-time;
#X obj 249 135 sqrt;
#X obj 249 157 sqrt;
#X obj 249 270 *~;
#X obj 249 300 *~;
#N canvas 940 101 654 622 calc-note-off-release-time 0;
#X obj 83 44 r \$1-timestretch-\$2-note-off-release-time;
#X obj 139 75 r \$1-timestretch-\$2-tablename;
#X obj 139 97 t b a;
#X obj 139 119 array size;
#X obj 196 97 symbol;
#X obj 139 214 -;
#X obj 83 256 min;
#X obj 139 141 /;
#X obj 199 163 / 1000;
#X obj 199 185 t b f;
#X obj 199 141 r \$1-timestretch-\$2-samplerate;
#X obj 169 390 outlet;
#X obj 83 298 delay;
#X msg 83 319 5;
#X floatatom 182 269 10 0 0 3 time-left - -;
#X obj 83 277 select -1;
#X text 192 332 If the time remaining is 0 or greater \, then go ahead
and fade out in that amount of time. But if the release time given
is -1 \, let the sample play out at 100% speed \, and after that's
done \, fade out in 5ms;
#X obj 55 369 delay;
#X obj 55 390 t b b;
#X obj 326 441 f \$2;
#X obj 65 471 tabwrite \$1-timestretch-release-active-flags;
#X msg 55 450 0;
#X obj 55 491 tabwrite \$1-timestretch-attack-active-flags;
#X text 344 464 clear the attack and release flags for this voice to
keep track of whether we're ready to allow a release message through
in the future., f 44;
#X obj 111 579 text set \$1-timestretch-attack-arrays;
#X msg 91 553 symbol NULL;
#X text 366 556 once release is done \, set array name back to NULL
, f 27;
#X obj 111 522 t b b;
#X obj 184 558 f \$2;
#X obj 179 214 r \$1-timestretch-\$2-location-current;
#X connect 0 0 6 0;
#X connect 1 0 2 0;
#X connect 2 0 3 0;
#X connect 2 1 4 0;
#X connect 3 0 7 0;
#X connect 4 0 3 1;
#X connect 5 0 6 1;
#X connect 5 0 12 1;
#X connect 5 0 14 0;
#X connect 6 0 15 0;
#X connect 7 0 5 0;
#X connect 8 0 9 0;
#X connect 9 0 7 0;
#X connect 9 1 7 1;
#X connect 10 0 8 0;
#X connect 12 0 13 0;
#X connect 13 0 11 0;
#X connect 13 0 17 0;
#X connect 15 0 12 0;
#X connect 15 1 11 0;
#X connect 15 1 17 0;
#X connect 17 0 18 0;
#X connect 18 0 21 0;
#X connect 18 1 19 0;
#X connect 18 1 27 0;
#X connect 19 0 20 1;
#X connect 19 0 22 1;
#X connect 21 0 20 0;
#X connect 21 0 22 0;
#X connect 25 0 24 0;
#X connect 27 0 25 0;
#X connect 27 1 28 0;
#X connect 28 0 24 1;
#X connect 29 0 5 1;
#X restore 399 269 pd calc-note-off-release-time;
#X floatatom 419 300 10 0 0 1 ms - -;
#X floatatom 389 240 10 0 0 1 ms - -;
#X obj 325 396 pack \$1 \$2;
#X text 413 366 Might as well rewind the playhead once the release
is definitely finished, f 26;
#X msg 329 176 0;
#X obj 329 125 r \$1-timestretch-\$2-stop-playback;
#X msg 325 425 \; \$1-timestretch-note-off-feedback \$2 \; \$1-timestretch-\$2-rewind
bang \;;
#X msg 339 146 stop;
#X obj 325 355 delay;
#X floatatom 429 180 10 0 0 1 ms - -;
#X floatatom 489 230 10 0 0 1 ms - -;
#X connect 0 0 4 0;
#X connect 0 1 5 0;
#X connect 4 0 1 0;
#X connect 5 0 2 0;
#X connect 6 0 7 0;
#X connect 7 0 14 0;
#X connect 8 0 16 0;
#X connect 8 0 16 1;
#X connect 9 0 11 0;
#X connect 10 0 8 0;
#X connect 11 0 10 0;
#X connect 11 0 20 0;
#X connect 11 0 27 0;
#X connect 12 0 9 0;
#X connect 12 0 28 0;
#X connect 13 0 11 1;
#X connect 13 0 29 0;
#X connect 14 0 15 0;
#X connect 15 0 8 0;
#X connect 16 0 17 1;
#X connect 16 0 17 0;
#X connect 17 0 5 1;
#X connect 17 0 4 1;
#X connect 18 0 10 0;
#X connect 18 0 19 0;
#X connect 18 0 27 0;
#X connect 21 0 25 0;
#X connect 23 0 10 0;
#X connect 23 0 27 0;
#X connect 24 0 23 0;
#X connect 24 0 26 0;
#X connect 26 0 9 0;
#X connect 27 0 21 0;
