#N canvas 0 184 483 493 10;
#X obj 149 181 line~;
#X obj 99 129 *~;
#X msg 149 159 0 \, \$2 \$1;
#X obj 149 129 pack f 15;
#X obj 149 107 f 250;
#X obj 149 85 delay;
#X obj 99 253 snapshot~;
#X obj 99 374 spigot;
#X obj 193 317 tabread voice-flags;
#X obj 356 151 t b b;
#X obj 193 293 f \$1;
#X msg 99 322 bend \$2 \$1;
#X obj 99 275 pack f \$1;
#X obj 99 426 outlet;
#X obj 356 119 r tsVibPolyTick;
#X obj 299 95 r tsVibPolyDepth;
#X obj 149 45 r tsVibPolyOnsetTime-\$1;
#X obj 229 75 r tsVibPolyVibOnset;
#X obj 99 15 r~ tsVibPolyLFO;
#X connect 0 0 1 1;
#X connect 1 0 6 0;
#X connect 2 0 0 0;
#X connect 3 0 2 0;
#X connect 4 0 3 0;
#X connect 5 0 4 0;
#X connect 6 0 12 0;
#X connect 7 0 13 0;
#X connect 8 0 7 1;
#X connect 9 0 6 0;
#X connect 9 1 10 0;
#X connect 10 0 8 0;
#X connect 11 0 7 0;
#X connect 12 0 11 0;
#X connect 14 0 9 0;
#X connect 15 0 3 1;
#X connect 16 0 5 0;
#X connect 17 0 4 1;
#X connect 18 0 1 0;
